<?xml version="1.0" standalone="no"?> 
<!DOCTYPE svg PUBLIC "-//W3C//DTD SVG 1.1//EN" "http://www.w3.org/Graphics/SVG/1.1/DTD/svg11.dtd" >
<svg xmlns="http://www.w3.org/2000/svg">
<defs>
  <font id="iconfont" horiz-adv-x="1024">
    <font-face font-family="iconfont"
      units-per-em="1024" ascent="1024"
      descent="0" />
    <missing-glyph horiz-adv-x="0" />
    <glyph glyph-name="24cf7a10-2358-11e6-9fd9-0304ba0b441b.svg"
      unicode="&#xEA6F;"
      horiz-adv-x="1024" d=" M870.4 0H153.6C68.7 0 0 68.7000000000001 0 153.6V870.4C0 955.3 68.7 1024 153.6 1024H785.4L683.3 921.8H153.6C125.2 921.8 102.5 898.8 102.5 870.7V154C102.5 125.6 125.5 102.9 153.6 102.9H870.3000000000001C898.7 102.9 921.4 125.9 921.4 154V683.3L1024 785.8V154C1024 68.7000000000001 955.3 0 870.4 0zM546.2 475.7C526.4000000000001 455.9000000000001 494.7 455.9000000000001 475.0000000000001 475.7C455.2 495.5 455.2 527.2 475.0000000000001 546.9000000000001L937.7 1008.9C958.6 1026.9 990.6 1024.7 1008.6 1003.9C1024.8 985.2 1024.8 957.1 1008.6 938.1L546.2 475.7z" />
    <glyph glyph-name="2c601f50-2358-11e6-bca7-07f86fc772d3.svg"
      unicode="&#xEA70;"
      horiz-adv-x="1024" d=" M512 0C229.2 0 0 229.2000000000001 0 512S229.2 1024 512 1024S1024 794.8 1024 512S794.8 0 512 0zM102.5 512C102.5 421.3 132.7 333.2000000000001 188.5 261.6C197.5 273.1 205.1 281.7000000000001 205.1 281.7000000000001L742.3000000000001 819.2S750.9000000000001 826.4000000000001 762.4000000000001 835.8000000000001C584 974.3 326.7 942 188.2 763.5C132.4 691.5 102.2 603 102.5 512zM838 759.2C827.9 744.8 818.9 734 818.9 734L285.7 205.1S276 197.2000000000001 263 187.5C442.2 50 699.1 83.5 836.5 263C949.2 408.7000000000001 949.9 612.4 838 759.2z" />
    <glyph glyph-name="318d0b00-2358-11e6-8764-95136eebef5f.svg"
      unicode="&#xEA71;"
      horiz-adv-x="1024" d=" M512 0C229.2 0 0 229.2000000000001 0 512S229.2 1024 512 1024S1024 794.8 1024 512S794.8 0 512 0zM512 921.5C285.7 921.5 102.5 738 102.5 512S286 102.5 512 102.5S921.5 286 921.5 512S738.3 921.5 512 921.5zM755.2 581.1L753.8000000000001 579.7C753.1 579 752.4000000000001 578.3000000000001 751.3000000000001 577.5L455.5 297.9L272 471.3C250.4 490 247.9 522.8 266.6 544.3C276.3 555.5 290.3 561.9 305.1 562.3C319.1 562.3 332.8 556.1999999999999 342.2000000000001 545.6999999999999L342.6 546.0999999999999L455.2 440L680 652.7C689.4 662.4 702.7 668.2 716.3 668.2C744.6999999999999 667.8 767.8 644.8 767.4 616.4C767.8 602.7 763.1 590.4 755.1999999999999 581.0999999999999z" />
    <glyph glyph-name="36414440-2358-11e6-9fd9-0304ba0b441b.svg"
      unicode="&#xEA72;"
      horiz-adv-x="1024" d=" M973.2 819.5H922.1V153.6C922.1 68.6 853.3000000000001 -0.0999999999999 768.4000000000001 -0.0999999999999H255.8C170.8 -0.0999999999999 102.1 68.7000000000001 102.1 153.6000000000001V819.5H51C22.6 819.5 -0.1 842.5 -0.1 870.6C-0.1 899 22.9 921.7 51 921.7H409.5V972.9C409.5 1001.3 432.5 1024 460.6 1024H563.2C591.6 1024 614.3000000000001 1001 614.3000000000001 972.9V921.8H972.8C1001.2 921.8 1023.9 898.8 1023.9 870.7C1024.4 842.6 1001.3 819.5 973.2 819.5zM819.5 819.5H204.7V153.6C204.7 125.2000000000001 227.7 102.5 255.8 102.5H768C796.4 102.5 819.1 125.5 819.1 153.6L819.5 819.5zM614.7 256.2000000000001C586.3000000000001 256.2000000000001 563.6 279.2000000000001 563.6 307.3000000000001V614.7C563.6 643.0999999999999 586.6 665.8 614.7 665.8C643.1 665.8 665.8000000000001 642.8 665.8000000000001 614.7V307.3C665.8000000000001 278.9 642.8000000000001 256.2 614.7 256.2zM409.5000000000001 256.2000000000001C381.1000000000001 256.2000000000001 358.4000000000001 279.2000000000001 358.4000000000001 307.3000000000001V614.7C358.4000000000001 643.0999999999999 381.4000000000001 665.8 409.5000000000001 665.8S460.6000000000001 642.8 460.6000000000001 614.7V307.3C461.0000000000001 278.9 438.0000000000001 256.2 409.5000000000001 256.2z" />
    <glyph glyph-name="3a06d7c0-2358-11e6-a211-47554a28cc50.svg"
      unicode="&#xEA73;"
      horiz-adv-x="1024" d=" M870.4 0H153.6C68.7 0 0 68.7000000000001 0 153.6V870.4C0 955.3 68.7 1024 153.6 1024H870.3000000000001C955.3 1024 1024 955.3 1024 870.4V153.6999999999999C1024 68.6999999999999 955.3 0 870.4 0zM921.5 870.4C921.5 898.8 898.5 921.5 870.4 921.5H153.6C125.2 921.5 102.5 898.5 102.5 870.4V153.6999999999999C102.5 125.3 125.5 102.5999999999999 153.6 102.5999999999999H870.3000000000001C898.7 102.5999999999999 921.4 125.5999999999999 921.4 153.6999999999999V870.4zM665.6 614.5H768.1V205H665.6V614.5zM460.9 819.3H563.4V204.8H460.9V819.3zM256.2 409.5H358.7V204.8H256.2V409.5z" />
    <glyph glyph-name="40060790-2358-11e6-aea6-3bc5a5616062.svg"
      unicode="&#xEA74;"
      horiz-adv-x="1024" d=" M870.6 0H154C69.1 0 0.3 68.7000000000001 0.3 153.6V870.2C0.3 955.1 69.1 1023.8 154 1023.8H358.7L256.1 921.3H153.6C125.2 921.3 102.5 898.3 102.5 870.2V153.5999999999999C102.5 125.1999999999999 125.5 102.4999999999999 153.6 102.4999999999999H870.2C898.6 102.4999999999999 921.3 125.4999999999999 921.3 153.5999999999999V870.2C921.3 898.6 898.3000000000001 921.3 870.2 921.3H767.7L665.1 1023.8H869.8C954.7 1023.8 1023.4 955.1 1023.4 870.2V153.6C1024.2 68.7000000000001 955.5 0 870.5999999999999 0zM805.1 680.3C785 660.1999999999999 752.2 660.1999999999999 732.1 680.3L563.7 848.6V460.8C563.7 432.4 540.7 409.7 512.6 409.7C484.2 409.7 461.5 432.7 461.5 460.8V847.9L295.7 682.1C275.2 662.3 242.8 663 223.4 683.2C204.3 703 204.3 734.6 223.4 754.4000000000001L474.1 1005.1C475.2 1006.5 475.9 1008 477 1009.1C481 1012.7 485.3 1015.6 490 1017.7C490.4 1018.1 490.7 1018.4 491.4 1018.8C510.8 1028.5 534.6 1024.6 550 1009.1L805.8 753.3C824.9 733.2 824.9 700.4000000000001 805.0999999999999 680.3z" />
    <glyph glyph-name="443161c0-2358-11e6-a211-47554a28cc50.svg"
      unicode="&#xEA75;"
      horiz-adv-x="1024" d=" M869.5 1H153.4C68.7 1 0 69.7000000000001 0 154.5V870.6C0 955.3 68.7 1024 153.4 1024H869.5C954.3 1024 1023 955.3 1023 870.6V154.5C1023 69.7000000000001 954.3 1 869.5 1zM920.7 870.6C920.7 898.8000000000001 897.8000000000001 921.7 869.6 921.7H153.4C125.2 921.7 102.3 898.8 102.3 870.6V154.5C102.3 126.3 125.2 103.4 153.4 103.4H869.5C897.7 103.4 920.6 126.3 920.6 154.5V870.6zM409.2 359.1H818.4V256.8000000000001H409.2V359.1zM409.2 563.7H818.4V461.4000000000001H409.2V563.7zM409.2 768.3000000000001H818.4V666H409.2V768.3zM204.6 359.1H306.9V256.8000000000001H204.6V359.1zM204.6 563.7H306.9V461.4000000000001H204.6V563.7zM204.6 768.3000000000001H306.9V666H204.6V768.3z" />
    <glyph glyph-name="479a0830-2358-11e6-9fd9-0304ba0b441b.svg"
      unicode="&#xEA76;"
      horiz-adv-x="1024" d=" M870.4 0H153.6C68.7 0 0 68.7000000000001 0 153.6V870.4C0 955.3 68.7 1024 153.6 1024H870.3000000000001C955.3 1024 1024 955.3 1024 870.4V153.6999999999999C1024 68.6999999999999 955.3 0 870.4 0zM921.5 870.4C921.5 898.8 898.5 921.5 870.4 921.5H153.6C125.2 921.5 102.5 898.5 102.5 870.4V153.6999999999999C102.5 125.3 125.5 102.5999999999999 153.6 102.5999999999999H870.3000000000001C898.7 102.5999999999999 921.4 125.5999999999999 921.4 153.6999999999999V870.4zM716.7 409.5H819.2V307H716.7V409.5zM460.9 716.7H819.3V614.2H460.9V716.7zM307.3 767.8H409.8V563.1H307.3V767.8zM204.7 716.7H255.8V614.2H204.7V716.7zM512 307.3H204.7V409.8H512V307.3zM665.6 256.2H563.1V460.9H665.6V256.2000000000001z" />
    <glyph glyph-name="c1a63bd0-2358-11e6-bca7-07f86fc772d3.svg"
      unicode="&#xEA77;"
      horiz-adv-x="1024" d=" M512.3 0C229.6 0 0.3 229.3 0.3 512S229.6 1024 512.3 1024S1024.3 794.7 1024.3 512S795 0 512.3 0zM512.3 878C310.3 878 146.8 714.5 146.8 512.5S310.8 147 512.3 147S877.8 311 877.8 512.5S714.3 878 512.3 878z" />
    <glyph glyph-name="c626bae0-2358-11e6-8601-a7a886f15772.svg"
      unicode="&#xEA78;"
      horiz-adv-x="1024" d=" M512 0C229.3 0 0 229.3 0 512S229.3 1024 512 1024S1024 794.7 1024 512S794.7 0 512 0zM512 878C310 878 146.5 714.5 146.5 512.5S310.5 147 512 147S877.5 311 877.5 512.5S714 878 512 878zM512 292.5C390.7 292.5 292.5 390.7000000000001 292.5 512S390.7 731.5 512 731.5S731.5 633.3 731.5 512S633.3 292.5 512 292.5z" />
    <glyph glyph-name="c9afe1a0-2358-11e6-9314-6f032914faa0.svg"
      unicode="&#xEA79;"
      horiz-adv-x="905.9" d=" M903.9 72.4C766.4 -21.4000000000001 104.1 -26.9000000000001 0 72.4C2.2 177 21.9 355.7000000000001 128.4 446.8C163.5 446.8 195.9 446.8 226.3 447.0999999999999C255.1 444.5999999999999 277.8 451.3 293.3 469.4999999999999C305.8 486.8999999999999 314.3 511.2999999999998 320.4000000000001 540.5999999999999C295.5000000000001 566.3 275.6 598.6999999999999 264.2000000000001 635.4999999999999C250.1000000000001 642.3999999999999 239.6000000000001 654.5999999999999 232.7000000000001 671.1999999999998C225.0000000000001 689.1999999999998 221.4 712.6999999999998 221.9 740.8999999999999L222.2000000000001 749.7999999999998L229.7000000000001 754.7999999999998C231.1000000000001 755.8999999999999 232.7000000000001 756.6999999999998 234.1000000000001 757.5999999999999C217.5000000000001 876.2999999999998 231.3000000000001 931.2999999999998 284.2000000000001 973.6999999999998C366.4000000000001 1039.4999999999998 522.1 1040.1 605.1 980.2999999999998C661.5 939.8999999999997 681.7 867.9999999999999 666.8000000000001 760.0999999999999C669.6 758.3999999999999 672.6 756.7999999999998 675.4000000000001 754.7999999999998L682.9000000000001 749.7999999999998L683.2 740.8999999999999C683.5 713.4999999999999 680.2 690.2999999999998 673 672.2999999999998C666.4 655.9999999999998 656.1 643.4999999999998 642.6 636.2999999999998C632.1 601.9999999999998 614.1 571.2999999999998 591.7 546.3999999999999C598.9000000000001 508.7999999999998 610 478.2999999999998 627.9000000000001 459.7999999999998C643.7 452.0999999999998 664.4000000000001 450.0999999999998 689.0000000000001 451.7999999999998C717.5000000000001 452.0999999999998 747.7000000000002 452.0999999999998 780.0000000000001 452.0999999999998C863.5000000000001 374.2999999999999 917.2 191.3999999999999 903.9 72.3999999999999zM722.9 382H647.6C627.1 380.3 564.6 426.5 551.6 432.9C536.7 448.4 533.6 508.6999999999999 527.8000000000001 540.5C546.3000000000001 561.5 543.0000000000001 600.8 551.6 629.6C562.9 635.7 585.4 655.1 590.9 668.9000000000001C597 684.1 603.9 720.9000000000001 603.6 744.4000000000001L603.3000000000001 751.9000000000001L596.9000000000001 756.1C594.7 757.8 592.2 759.1 589.7 760.5C602.2 851.8 607.7 874.2 590.5 905.2C535.4 971 362.8 966.6 314.9 905.2C303 879.2 296.9 859 310.8 758.6C309.7 757.8 308.3 757.2 307.2 756.1L301.0999999999999 751.9000000000001L300.7999999999999 744.4000000000001C300.4999999999999 720.6 308.4999999999999 684.1 314.8999999999999 668.9000000000001C320.7 654.8 342.5999999999999 635.4000000000001 354.2 629.6C363.8999999999999 598.6 361.7 557.1 382.3999999999999 535.5C377.3999999999999 510.9 364.7 447.5 354.2 432.9C341.5 417.4 288.8999999999999 375.6 265.0999999999999 377.8H184.2999999999999C96.2999999999999 300.9 79.9999999999999 228.4 78.2999999999999 139.9C164.0999999999999 55.8 711.3 60.5 825 139.9C836.4 240.6 792.1 316.7000000000001 722.9 382z" />
    <glyph glyph-name="ccd0a9a0-2358-11e6-8c34-7d4ad391f405.svg"
      unicode="&#xEA7A;"
      horiz-adv-x="1024" d=" M896.3 0H128.2C57.6 0 0 57.1 0 128.2000000000001V895.8C0 966.4 57.1 1024 128.2 1024H896.3C966.9 1024 1024.5 966.9 1024.5 895.8V127.7000000000001C1024 57.1 966.9 0 896.3 0zM896.3 895.8H128.2V127.6999999999999H896.3V895.8zM282 585.1L466.4 423.7000000000001L742 747.4L832.4 657L462.7 223L372.3 313.8L191.6 494.6999999999999L282 585.0999999999999z" />
    <glyph glyph-name="d1ae8af0-2358-11e6-aea6-3bc5a5616062.svg"
      unicode="&#xEA7B;"
      horiz-adv-x="1024" d=" M1023.6 77.3L946.3 0L752.9000000000001 193.4C673.7 130.6999999999999 574.1000000000001 93.4 465.3000000000001 93.4C208.4 93.4 0 301.9 0 558.7S208.4 1024 465.3 1024S930.6 815.6 930.6 558.7C930.6 449.9 892.9 350.3 830.6 271.0999999999999L1023.6 77.3zM465.3 914C268.8 914 109.6 754.8 109.6 558.3S268.8 202.6 465.3 202.6S821 361.8 821 558.3S661.4 914 465.3 914z" />
    <glyph glyph-name="d56a8180-2358-11e6-a211-47554a28cc50.svg"
      unicode="&#xEA7C;"
      horiz-adv-x="1024" d=" M895.9 0.4H128.1C57.5 0.4 0 57.5 0 128.6V895.9C0 966.5 57.1 1024 128.1 1024H895.9C966.5 1024 1024 966.9 1024 895.9V128.1C1023.6 57.5 966.5 0.4 895.9 0.4zM895.9 895.9H128.1V128.1H895.9V895.9z" />
    <glyph glyph-name="d86fd240-2358-11e6-9fd9-0304ba0b441b.svg"
      unicode="&#xEA7D;"
      horiz-adv-x="682.2" d=" M41.4 16.5C64.8 -3.5999999999999 78 -7.2 105.3 16.5L668.4 485C677.4 492.2 682.1999999999999 492.2 682.1999999999999 512C682.1999999999999 534.2 677.6999999999999 531.8 668.4 539L105.3 1007.6C76.8 1032.2 62.7 1026.5 41.4 1007.6L20.1 989.3C-8 965 -5.3 955.4 20.1 934.1L489 530.3C510.9 511.7 510.9 512.3 489 493.7L20.1 89.9C0.3 72.8 -12.9 63.1999999999999 20.1 34.6999999999999L41.4 16.4999999999999z" />
    <glyph glyph-name="db5b3260-2358-11e6-8764-95136eebef5f.svg"
      unicode="&#xEA7E;"
      horiz-adv-x="681" d=" M639.6 16.5C616.2 -3.5999999999999 603 -7.2 575.7 16.5L13.8 485C4.8 492.2 0 492.2 0 512C0 534.2 4.5 531.8 13.8 539L575.7 1007.6C604.2 1032.2 618.3000000000001 1026.5 639.6 1007.6L660.9 989.3C689.1 965 686.1 955.4 660.9 934.1L192.9 530.3C171.3 511.6999999999999 171.3 512.3 192.9 493.6999999999999L660.9 89.8999999999999C680.6999999999999 72.7999999999998 693.9 63.1999999999998 660.9 34.6999999999998L639.6 16.4999999999998z" />
    <glyph glyph-name="de394c10-2358-11e6-bca7-07f86fc772d3.svg"
      unicode="&#xEA7F;"
      horiz-adv-x="1024" d=" M1023.3 107.8L1016.6 103.1C1016.3 102.9 1015.9999999999998 102.8 1015.7 102.8H1015.4C1015 102.9 1014.6 103.2 1014.3 103.5C1012.3 106.6 1010.1 109.8 1007.5 113C943.1 109.4 931.1 107.9 929.7 107.4C929.2 107.2 928.7 107.3 928.3 107.5C927.9 107.7 927.6 108.1 927.5000000000002 108.6C927.1000000000003 110.6 926.3 113 925.1000000000003 115.9C924.9 116.3 924.9 116.8 925.2000000000002 117.3C925.4000000000002 117.7 925.8000000000002 118 926.3000000000002 118.1C927.3000000000002 118.3 929.7000000000002 119.5 935.1000000000003 124.7C945.2000000000002 134.2 954.4 145.4 962.4 157.9C962.8 158.6 963.7 158.8 964.5000000000002 158.5L972.1000000000003 155C972.5000000000002 154.8 972.9 154.4 973.0000000000002 153.9C973.1000000000003 153.4 973.0000000000002 152.9 972.7000000000002 152.5C963.3000000000002 139.8 953.9000000000002 128.9 944.7000000000002 120.1L999.2000000000002 122.8C994.4000000000002 128.1 989.3000000000002 133.1 984.0000000000002 137.9C983.6000000000003 138.2 983.4 138.7 983.5000000000002 139.2C983.5000000000002 139.7 983.8 140.2 984.2000000000002 140.4L990.3000000000002 144.4C990.9000000000002 144.8 991.7000000000002 144.7 992.3000000000002 144.3C1006.9000000000002 131.7 1017.5000000000002 120.1 1023.9000000000002 109.9C1024.2000000000003 109.3 1024.0000000000002 108.3 1023.3000000000002 107.8zM821.8 136.8C822.5 137 823.3 136.7 823.6999999999999 136C829.4999999999999 125.7 833.4 116.5 835.4 108.7C835.6 107.9 835.1 107 834.3 106.8L826.9 104.3C826.6999999999999 104.2 826.6 104.2 826.4 104.2C826.1 104.2 825.9 104.3 825.6 104.4C825.2 104.6 824.9 105 824.8000000000001 105.4C822.8000000000001 113.2 819.1 122.3 813.9000000000001 132.4C813.7 132.8 813.7 133.3 813.9000000000001 133.8C814.1000000000001 134.2000000000001 814.5000000000001 134.6 814.9000000000001 134.7000000000001L821.8000000000001 136.8zM876.8 103.8C876.5999999999999 103.8 876.5 103.8 876.3 103.9L869.6999999999999 106C869.1999999999999 106.2 868.9 106.5 868.6999999999999 107C868.4999999999999 107.5 868.5999999999999 108 868.8 108.4C873.9 117 878.1999999999999 126.5 881.6999999999999 136.5C881.9999999999999 137.3 882.9 137.8 883.6999999999999 137.5L891.9 135C892.4 134.9 892.6999999999999 134.5 892.9 134.1C893.1 133.7 893.1 133.2 892.9 132.8C887.5 120.7 882.5 111.2 878.1 104.5C877.9 104 877.3000000000001 103.8 876.8000000000001 103.8zM905.4 90H858.3V50.1C858.3 49.2 857.5999999999999 48.5 856.6999999999999 48.5H848.6999999999999C847.8 48.5 847.0999999999999 49.2 847.0999999999999 50.1V90H800.6999999999999C799.8 90 799.0999999999999 90.7 799.0999999999999 91.6V99.3C799.0999999999999 100.2 799.8 100.9 800.6999999999999 100.9H847V139.6H806.7C805.8000000000001 139.6 805.1 140.3 805.1 141.2V148.9C805.1 149.8 805.8000000000001 150.5 806.7 150.5H898.7C899.6 150.5 900.3000000000001 149.8 900.3000000000001 148.9V141.2C900.3000000000001 140.3 899.6 139.6 898.7 139.6H858.2V101.1H905.3C906.2 101.1 906.9 100.4 906.9 99.5V91.8C907.0000000000002 90.8 906.3 90 905.4 90zM787.1 52.6C787.1 51.8 786.4 51.1 785.6 51.1C771.9 50.3 757.7 49.9 743.4 49.9C727.1999999999999 49.9 715.9 52.1 708.9 56.7000000000001C701.3 62.1000000000001 698.9 63.5000000000001 698.1999999999999 63.9C697.0999999999999 63.7000000000001 693.4999999999999 61.7000000000001 684.9 49C684.6 48.6 684.1 48.3 683.6 48.3S682.6 48.5 682.3000000000001 48.9L676.7 56.3C676.2 56.9 676.3000000000001 57.8 676.7 58.3C683.6 66.4 689.2 71.4 694 73.4V108.4H680.5C679.6 108.4 678.9 109.1 678.9 110V117.3C678.9 118.2 679.6 118.9 680.5 118.9H703C703.9 118.9 704.6 118.2 704.6 117.3V72.2L707.7 70C709.7 68.5 711.3000000000001 67.3 712.7 66.4C718.5 62.7000000000001 728.9000000000001 60.8 743.6 60.8C758.8000000000001 60.8 773.6 61.6000000000001 787.8000000000001 63.1000000000001C788.4000000000001 63.2000000000001 789.0000000000001 62.9000000000001 789.3000000000001 62.4000000000001C789.6 61.9000000000001 789.7 61.3000000000001 789.5000000000001 60.8000000000001C788.0000000000001 57.8000000000001 787.3000000000001 55.0000000000001 787.1000000000001 52.6000000000001zM785 101H753.4C766.8 88.7 776.3 79.4 781.6 73.5C782.2 72.8 782.2 71.9 781.5 71.2L776 65.8C775.7 65.5 775.2 65.3 774.8 65.3C774.3 65.3 773.9 65.5 773.5999999999999 65.9C767.6999999999999 72.7 759.3 81.3 748.5999999999999 91.4C743.3999999999999 80.3 733.3 71.3 718.4999999999999 64.6C718.2999999999998 64.5 718.0999999999999 64.5 717.7999999999998 64.5C717.1999999999998 64.5 716.6999999999998 64.8 716.3999999999999 65.3C715.2999999999998 67.3 713.5999999999999 69.1 711.4999999999999 70.7C710.9999999999999 71.1 710.7999999999998 71.6 710.8999999999999 72.2C710.9999999999999 72.8 711.3999999999999 73.3 711.8999999999999 73.5C727.6999999999998 79.9 737.1999999999998 89.1 740.3999999999999 100.9H711.6999999999998C710.7999999999998 100.9 710.0999999999998 101.6 710.0999999999998 102.5V109.9C710.0999999999998 110.8 710.7999999999998 111.5 711.6999999999998 111.5H741.7999999999998V126H715.3999999999999C714.4999999999999 126 713.7999999999998 126.7 713.7999999999998 127.6V134.8C713.7999999999998 135.7 714.4999999999999 136.4 715.3999999999999 136.4H730.2999999999998C727.9999999999999 141.4 724.7999999999998 147 720.8999999999999 153.2C720.5999999999999 153.6 720.5999999999999 154.1 720.6999999999998 154.6C720.8999999999999 155.1 721.1999999999998 155.4 721.6999999999998 155.6L728.2999999999998 158.2C728.9999999999999 158.5 729.7999999999998 158.2 730.2999999999998 157.6C734.8999999999999 150.6 738.3999999999999 144.6 740.8999999999999 139.6C741.0999999999999 139.2 741.0999999999999 138.7 740.9999999999999 138.3C740.7999999999998 137.9 740.4999999999999 137.5 740.0999999999999 137.4L738.0999999999999 136.5H754.3C758.5999999999999 142.8 762.3 149.9 765.4 157.7C765.6999999999999 158.5 766.6 158.9 767.4 158.6L775.3 156.1C775.8 156 776.0999999999999 155.6 776.3 155.2C776.5 154.8 776.5 154.2 776.1999999999999 153.8C772.9999999999999 147.7 769.5999999999999 141.9 766.0999999999999 136.5H781.3999999999999C782.2999999999998 136.5 782.9999999999999 135.8 782.9999999999999 134.9V127.7C782.9999999999999 126.8 782.2999999999998 126.1 781.3999999999999 126.1H752.8999999999999V111.5H785C785.9 111.5 786.6 110.8 786.6 109.9V102.6C786.7 101.7 785.9 101 785 101zM702.1 129.5C701.8000000000001 129.3 701.5 129.2000000000001 701.2 129.2000000000001H700.9000000000001C700.5000000000001 129.3 700.1000000000001 129.6 699.9000000000001 129.9C696.4000000000001 135.4 690.6000000000001 142.3000000000001 682.6000000000001 150.5C682.2000000000002 150.9 682.1000000000001 151.4 682.1000000000001 151.9C682.2000000000002 152.4 682.5000000000001 152.8000000000001 682.9000000000001 153.1L689.0000000000001 156.7000000000001C689.6000000000001 157.1 690.4000000000001 157 691.0000000000001 156.5C699.2000000000002 148.5 705.3000000000001 141.7000000000001 709.2000000000002 136.1C709.5000000000001 135.7000000000001 709.5000000000001 135.3000000000001 709.5000000000001 134.9C709.4000000000001 134.5 709.2000000000002 134.1 708.8000000000001 133.9L702.1 129.5zM665.7 56.7H613.9000000000001V50C613.9000000000001 49.1 613.2 48.4 612.3000000000001 48.4H604.8000000000001C603.9000000000001 48.4 603.2 49.1 603.2 50V114.1C600.9000000000001 110.7 598.7 107.7 596.6 105.2L597.7 98.8C597.8000000000001 98 597.4000000000001 97.2 596.6 97C592.3000000000001 95.6 588 94.2 584 92.8V59.9C584 55.1 582.4 51.9 579.2 50.2C576.7 49 571.7 48.5 563.8000000000001 48.6C563.0000000000001 48.6 562.4000000000001 49.2 562.2 49.9C561.8000000000001 52.2 561 54.6 559.8000000000001 57.1C559.6 57.6 559.6 58.2 559.9000000000001 58.7C560.2 59.2 560.7 59.4 561.3000000000001 59.4C567.2 59.2 571.0000000000001 59.2 572.4000000000001 59.4C572.9000000000001 59.4 573.0000000000001 59.5 573.0000000000001 59.5V89.2L560.9000000000001 85.2C560.5000000000001 85.1 560.0000000000001 85.1 559.6000000000001 85.3S558.9000000000001 85.9 558.8000000000002 86.3L556.7000000000002 93.8C556.5000000000001 94.7 556.9000000000002 95.5 557.8000000000002 95.8L573.0000000000002 100.4V124.4H559.2000000000003C558.3000000000003 124.4 557.6000000000003 125.1 557.6000000000003 126V133.3C557.6000000000003 134.2 558.3000000000003 134.9 559.2000000000003 134.9H573V156.9C573 157.8 573.7 158.5 574.6 158.5H582.1C583 158.5 583.7 157.8 583.7 156.9V134.9H595.6C596.5 134.9 597.2 134.2 597.2 133.3V126C597.2 125.1 596.5 124.4 595.6 124.4H583.7V103.9L591.7 106.4C590.2 107.9 588.9000000000001 109 587.8000000000001 109.8C587.4000000000001 110.1 587.2 110.5 587.1 111C587.1 111.5 587.2 111.9 587.5 112.3C597.6 123.3 605.7 138.2 611.4 156.8C611.6999999999999 157.6 612.5 158.1 613.4 157.9L620.6999999999999 156C621.0999999999999 155.9 621.4999999999999 155.6 621.6999999999999 155.2C621.9 154.8 621.9999999999999 154.3 621.8 153.9C620.3 149 618.1999999999999 143.5 615.6999999999999 137.6H635.3C633.6999999999999 142.2 631.1999999999999 147.2 627.8 152.5C627.5 152.9 627.5 153.4 627.5999999999999 153.9C627.6999999999999 154.4 628.0999999999999 154.7 628.4999999999999 154.9L635.1999999999999 157.6C635.9 157.9 636.8 157.6 637.1999999999999 157C641.5999999999999 150.3 644.5999999999999 144.4 646.1999999999999 139.5C646.4 138.8 646.1999999999999 138.1 645.5999999999999 137.7H663.0999999999999C663.9999999999999 137.7 664.6999999999999 137 664.6999999999999 136.1V128.8C664.6999999999999 127.9 663.9999999999999 127.2 663.0999999999999 127.2H642V114.5H661.4C662.3 114.5 663 113.8 663 112.9V105.9C663 105 662.3 104.3 661.4 104.3H642V90.9H661.3C662.1999999999999 90.9 662.9 90.2 662.9 89.3V82.3C662.9 81.4 662.1999999999999 80.7 661.3 80.7H642V67.3H665.7C666.6 67.3 667.3000000000001 66.6 667.3000000000001 65.7V58.4C667.3000000000001 57.4 666.6 56.7 665.7 56.7zM631.4000000000001 127H614V114.3H631.4V127zM631.4000000000001 104H614V90.9H631.4V104zM631.4000000000001 80.6H614V67.2H631.4V80.6zM503.4000000000001 97.2H419.8000000000001C422.0000000000001 80.8 433.3000000000001 63.5 458.6000000000001 63.5C473.4000000000001 63.5 487.3000000000001 70.9 494.0000000000001 82.3C495.4 84.7 498.1000000000001 86.2 501.1000000000001 86.2C502.5000000000001 86.2 503.9000000000001 85.8 505.1000000000001 85.1C506.9000000000001 84.1 508.2000000000001 82.4 508.7000000000001 80.3C509.2000000000001 78.3 508.9000000000001 76.2000000000001 507.9000000000001 74.4C498.5000000000001 58.3 479.7000000000001 48.4 458.9000000000001 48.4C443.0000000000001 48.4 429.7000000000001 53.9 419.4000000000001 64.7000000000001C409.9000000000001 74.7000000000001 404.7000000000001 88.5 404.7000000000001 103.5C404.7000000000001 118.6 409.8000000000002 132.4 419.1000000000001 142.3000000000001C429.1000000000001 153.0000000000001 443.2000000000001 158.6 459.9000000000001 158.6C475.6000000000001 158.6 489.0000000000001 152.6 498.5000000000001 141.3000000000001C506.6000000000001 131.7000000000001 511.3000000000001 118.5000000000001 511.3000000000001 105.1C511.3000000000001 100.7 507.7000000000001 97.2 503.4000000000001 97.2zM459.9000000000001 143.2C447.4000000000001 143.2 437.1000000000001 139.2 429.9000000000001 131.6C425.2000000000001 126.6 421.9000000000001 120 420.4000000000001 112.5H495.6000000000001C493.1000000000001 126.8 482.2000000000001 143.2000000000001 459.9000000000001 143.2000000000001zM382.8000000000001 49.5C378.6000000000001 49.5 375.1000000000001 52.9 375.1000000000001 57.1V117.7C375.1000000000001 131 364.2000000000001 141.9 350.9000000000001 141.9C337.6000000000001 141.9 326.7000000000001 131.1 326.7000000000001 117.7V57.1C326.7000000000001 52.9 323.3000000000002 49.5 319.0000000000001 49.5C314.8000000000002 49.5 311.3000000000002 52.9 311.3000000000002 57.1V117.7C311.3000000000002 131 300.4000000000002 141.9 287.1000000000002 141.9C273.9000000000002 141.9 263.0000000000001 131.1 263.0000000000001 117.7V57.1C263.0000000000001 52.9 259.6000000000002 49.5 255.3000000000002 49.5C251.1000000000002 49.5 247.6000000000002 52.9 247.6000000000002 57.1V117.7C247.6000000000002 139.4 265.3000000000002 157.1 287.1000000000002 157.1C300.2000000000002 157.1 311.8000000000002 150.7 319.0000000000001 140.9C326.2000000000001 150.7 337.8000000000002 157.1 350.9000000000001 157.1C372.7000000000001 157.1 390.4000000000001 139.4 390.4000000000001 117.7V57.1C390.5000000000001 53 387.0000000000001 49.5 382.8000000000001 49.5zM180.7000000000001 4.8C179.5000000000001 1.9 176.7000000000001 0 173.6000000000001 0H173.5000000000001C172.6000000000001 0 171.6000000000001 0.2 170.7000000000001 0.6C166.8000000000001 2.2 164.9000000000001 6.6 166.4000000000001 10.5L185.5000000000001 57.9L147.7000000000001 145.9C146.0000000000001 149.8000000000001 147.8000000000001 154.3000000000001 151.7000000000001 155.9C152.7000000000001 156.3000000000001 153.7000000000001 156.5 154.7000000000001 156.5C157.8000000000001 156.5 160.5000000000001 154.7000000000001 161.7000000000001 151.9L193.5000000000001 77.9L223.6000000000001 152.5C224.8000000000001 155.4 227.6000000000001 157.3 230.7000000000001 157.3C231.7000000000001 157.3 232.6000000000001 157.1 233.6000000000001 156.7C235.5000000000001 155.9 237.0000000000001 154.5 237.8000000000001 152.6C238.6000000000001 150.7 238.6000000000001 148.6 237.9000000000001 146.8L180.7000000000001 4.8zM121.3000000000001 49.7C117.1000000000001 49.7 113.6000000000001 53.1000000000001 113.6000000000001 57.3V195.1C113.6000000000001 199.3 117.0000000000001 202.7 121.3000000000001 202.7C125.5000000000001 202.7 129.0000000000001 199.3 129.0000000000001 195.1V57.3C129.0000000000001 53.1 125.5000000000001 49.7 121.3000000000001 49.7zM91.1 187.6H33.1C23.3 187.6 15.3 179.6 15.3 169.9V132.2H89.7C93.9 132.2 97.4 128.8 97.4 124.6C97.4 120.4 94 117 89.7 117H15.3V57.4C15.3 53.2 11.9 49.8 7.6 49.8C3.4 49.8 -0.1 53.2 -0.1 57.4V169.9C0 188.1 14.8 202.9 33.1 202.9H91.1C95.3 202.9 98.8 199.5 98.8 195.3S95.3 187.6 91.1 187.6zM935.8 100.5H1010.2C1011.1 100.5 1011.8 99.8 1011.8 98.9V50.4C1011.8 49.5 1011.1 48.8 1010.2 48.8H1002C1001.1 48.8 1000.4 49.5 1000.4 50.4V54.9H945.4V50.1C945.4 49.2 944.7 48.5 943.8 48.5H935.9C935 48.5 934.3 49.2 934.3 50.1V98.8C934.1 99.7 934.9 100.5 935.8 100.5zM1000.3 65.7V89.7H945.3V65.7H1000.3z" />
    <glyph glyph-name="694ace20-2bf9-11e6-8c34-7d4ad391f405.svg"
      unicode="&#xEA86;"
      horiz-adv-x="1024" d=" M870.4 0H153.6C68.8 0 0 68.8 0 153.6V870.4C0 955.2 68.8 1024 153.6 1024H409.6V921.6H153.6C125.3 921.6 102.4 898.7 102.4 870.4V153.6C102.4 125.3000000000001 125.3 102.4 153.6 102.4H870.4C898.6999999999999 102.4 921.6 125.3 921.6 153.6V409.6H1024V153.6C1024 68.8000000000001 955.2 0 870.4 0zM921.6 512V849.2L623.2 550.8C602.9000000000001 531.2 570.4000000000001 531.7 550.8000000000001 552.1C531.6 571.9000000000001 531.6 603.4000000000001 550.8000000000001 623.2L849.2 921.6H512V1024H972.8C1001.1 1024 1024 1001.1 1024 972.8V512H921.6z" />
    <glyph glyph-name="37474cf0-42f1-11e6-92a7-ade84edfa606.svg"
      unicode="&#xEADB;"
      horiz-adv-x="1024" d=" M921.6 0V870.4C921.6 898.7 898.7 921.6 870.4 921.6H153.6C125.3 921.6 102.4 898.7 102.4 870.4V766.8L0 665.6V870.4C0 955.2 68.8 1024 153.6 1024H870.4C955.2 1024 1024 955.2 1024 870.4V0H921.6zM102.4 153.6C102.4 125.3000000000001 125.3 102.4 153.6 102.4H614.4000000000001V0H153.6C68.8 0 0 68.8 0 153.6V460.8L102.4 359.5999999999999V153.5999999999999zM521.4 512H280.8L343.8 449C364.6 428.2000000000001 364.6 394.5 343.8 373.7000000000001S289.3 352.9000000000001 268.5 373.7000000000001L118 524.2C97.2 545 97.2 575.5999999999999 118 596.4C126.6 604.5 287.2 755.4 287.2 755.4C306.8 775.7 339.3 776.3 359.6 756.7C379.9000000000001 737.0999999999999 380.5 704.5999999999999 360.9000000000001 684.3L359.6 683L290.9000000000001 614.3H665.6C750.4 614.3 819.2 545.5 819.2 460.6999999999999V0H716.8V409.6C716.8 466.2 671 512 614.4 512H521.4z" />
    <glyph glyph-name="b25fb320-a68b-11e6-aed3-fd7f6352b4c8.svg"
      unicode="&#xEF66;"
      horiz-adv-x="1024" d=" M881.8 170.7000000000001V910.2H256C256 973.1 306.9 1024 369.8 1024H881.8C944.7 1024 995.6 973.1 995.6 910.2V284.4000000000001C995.4999999999998 221.6000000000001 944.6 170.7000000000001 881.8 170.7000000000001zM768 682.7V113.8C768 50.9 717.1 0 654.2 0H142.2000000000001C79.3 0 28.4000000000001 50.9 28.4000000000001 113.8V682.7C28.4000000000001 745.5999999999999 79.3 796.5 142.2000000000001 796.5H654.2C717.1 796.4 768 745.5 768 682.7zM256 682.7H142.2V113.8H654.2V682.7H256zM540.4 568.9V455.1H256V568.9H540.4zM540.4 227.5999999999999H256V341.3H540.4V227.5999999999999z" />
  </font>
</defs>
</svg>
